<svg xmlns="http://www.w3.org/2000/svg" viewBox="0 0 64 64">
  <defs>
    <linearGradient id="honey" x1="0" y1="0" x2="0" y2="1">
      <stop offset="0" stop-color="#FDE68A" />
      <stop offset="1" stop-color="#F59E0B" />
    </linearGradient>
  </defs>

  <!-- Honeycomb badge -->
  <path
    d="M32 4 54 16v32L32 60 10 48V16Z"
    fill="url(#honey)"
    stroke="#111827"
    stroke-width="3"
    stroke-linejoin="round"
  />

  <!-- Wings -->
  <path d="M26 26c-7 0-10 4-10 8 0 3 3 5 7 5 4 0 6-2 8-5" fill="#E0F2FE" stroke="#111827" stroke-width="2" stroke-linecap="round" />
  <path d="M38 26c7 0 10 4 10 8 0 3-3 5-7 5-4 0-6-2-8-5" fill="#E0F2FE" stroke="#111827" stroke-width="2" stroke-linecap="round" />

  <!-- Body -->
  <ellipse cx="32" cy="36" rx="12" ry="14" fill="#111827" />
  <path d="M21 30h22" stroke="#FBBF24" stroke-width="5" stroke-linecap="round" />
  <path d="M20 38h24" stroke="#FBBF24" stroke-width="5" stroke-linecap="round" />
  <path d="M23 46h18" stroke="#FBBF24" stroke-width="5" stroke-linecap="round" />

  <!-- Face + antennae -->
  <circle cx="28" cy="32" r="1.6" fill="#FDE68A" />
  <circle cx="36" cy="32" r="1.6" fill="#FDE68A" />
  <path d="M30 35c1 1 3 1 4 0" stroke="#FDE68A" stroke-width="2" stroke-linecap="round" fill="none" />
  <path d="M28 24c-2-3-5-3-7-2" stroke="#111827" stroke-width="2" stroke-linecap="round" fill="none" />
  <path d="M36 24c2-3 5-3 7-2" stroke="#111827" stroke-width="2" stroke-linecap="round" fill="none" />
</svg>
